<svg width="194" height="194" xmlns="http://www.w3.org/2000/svg">
 <!-- Created with Method Draw - http://github.com/duopixel/Method-Draw/ -->
 <g>
  <title>background</title>
  <rect fill="#fff" id="canvas_background" height="196" width="196" y="-1" x="-1"/>
 </g>
 <g>
  <title>Layer 1</title>
  <path stroke="#000" id="svg_1" d="m54.014717,164.189228c-3.286597,7.758379 -5.587736,11.830823 -16.767839,15.898115c-1.975612,1.108516 0.655557,3.696384 1.975612,3.325258c9.860048,-4.433629 12.161123,-8.134802 16.767839,-16.269386c2.301139,10.356477 7.558909,17.011565 16.437874,21.078857l0.659996,-2.221821c12.165626,7.397484 21.370117,8.877198 29.259056,7.026431c7.563348,-1.850623 16.437874,-3.325113 23.675695,-2.216597c-4.602278,-4.067655 -7.237821,-8.877126 -8.218969,-14.790034c7.558973,-8.876836 22.355704,-5.546789 29.589086,-10.722669l-1.645582,-4.072371c15.782317,-5.912981 29.263495,-15.527207 48.002508,-12.568068l-30.904638,-25.146366l0.655557,-3.330264c-9.204491,-7.763458 -19.724535,-9.614226 -31.56457,-4.433411c3.946657,-12.944345 0,-26.9922 10.854448,-36.977189c-2.631105,-5.546934 0,-13.310465 4.602278,-20.336895c0.66006,-13.310392 3.942218,-25.143899 9.860048,-35.866641c-9.534457,7.026431 -19.064539,13.310392 -28.929026,18.859865l-1.645582,-4.069831c-3.942218,7.028752 -9.534521,12.204561 -17.097869,15.158548l-1.315552,-4.067292c-10.194517,11.464848 -22.355704,17.377757 -29.919116,34.023202c2.301139,-16.274319 -1.975548,-32.172579 -7.893314,-45.114458l-2.301139,2.590335c-4.272248,-15.900727 -19.394569,-26.254737 -28.929026,-39.196543c3.942218,35.497692 -7.567851,39.933788 -7.233447,59.533438l-3.951096,0.365974c5.592239,19.970703 -1.971173,29.213803 1.645582,42.895394c-9.204491,-5.175881 -21.04459,-1.479642 -28.933529,-9.614298c9.534457,17.011782 12.825621,37.714652 28.933529,51.767296l-2.301139,1.108516c5.917766,7.392405 13.481178,13.68159 26.632326,17.382908z" fill-opacity="null" stroke-opacity="null" stroke-width="0.5" fill="#007fff"/>
  <text stroke="#000" transform="matrix(2.4994142055511475,0,0,2.592592477798462,-306.63020503520966,-271.53701746463776) " xml:space="preserve" text-anchor="start" font-family="Georgia, Times, 'Times New Roman', serif" font-size="24" id="svg_3" y="156.230323" x="136.082969" fill-opacity="null" stroke-opacity="null" stroke-width="0" fill="#ffffff">S4J</text>
 </g>
</svg>